<svg xmlns="http://www.w3.org/2000/svg" viewBox="0 0 1600 1600" preserveAspectRatio="xMidYMid slice"><style>*{vector-effect:non-scaling-stroke}</style><rect width="1600" height="1600" fill="#050505"/><circle cx="0.5" cy="1049.8" r="1.6" fill="#EBF0F2" fill-opacity="0.4"/><circle cx="1155.1" cy="1454.4" r="1.5" fill="#EBF0F2" fill-opacity="0.3"/><circle cx="36.7" cy="305.9" r="1.1" fill="#EBF0F2" fill-opacity="0.2"/><circle cx="1243.4" cy="1375.1" r="1.3" fill="#EBF0F2" fill-opacity="0.3"/><circle cx="189.6" cy="1420.8" r="1" fill="#EBF0F2" fill-opacity="0.2"/><circle cx="230.1" cy="1239.2" r="1.3" fill="#EBF0F2" fill-opacity="0.3"/><circle cx="65.6" cy="1042.4" r="1" fill="#EBF0F2" fill-opacity="0.2"/><circle cx="119" cy="630.9" r="0.8" fill="#EBF0F2" fill-opacity="0.2"/><circle cx="200.8" cy="256.5" r="0.9" fill="#EBF0F2" fill-opacity="0.2"/><circle cx="1440.1" cy="1111.2" r="1.1" fill="#EBF0F2" fill-opacity="0.2"/><circle cx="1463.2" cy="470.6" r="2" fill="#EBF0F2" fill-opacity="0.5"/><circle cx="1553.9" cy="739.4" r="1" fill="#EBF0F2" fill-opacity="0.2"/><circle cx="535.4" cy="112.6" r="1.9" fill="#EBF0F2" fill-opacity="0.4"/><circle cx="308.3" cy="1562.7" r="1.1" fill="#EBF0F2" fill-opacity="0.2"/><circle cx="43.8" cy="274.9" r="0.9" fill="#EBF0F2" fill-opacity="0.2"/><circle cx="113.2" cy="668.6" r="1.4" fill="#EBF0F2" fill-opacity="0.3"/><circle cx="1379.1" cy="166.5" r="1" fill="#EBF0F2" fill-opacity="0.2"/><circle cx="1570.1" cy="695.4" r="0.9" fill="#EBF0F2" fill-opacity="0.2"/><circle cx="282.5" cy="1355.4" r="1.3" fill="#EBF0F2" fill-opacity="0.3"/><circle cx="1389.6" cy="332.3" r="2.2" fill="#EBF0F2" fill-opacity="0.5"/><circle cx="237.3" cy="1172" r="1.8" fill="#EBF0F2" fill-opacity="0.4"/><circle cx="1460.1" cy="1291.7" r="1" fill="#EBF0F2" fill-opacity="0.2"/><circle cx="1303.4" cy="249.1" r="1.6" fill="#EBF0F2" fill-opacity="0.4"/><circle cx="132.1" cy="1462.9" r="1.4" fill="#EBF0F2" fill-opacity="0.3"/><circle cx="1525.3" cy="523.3" r="1.5" fill="#EBF0F2" fill-opacity="0.3"/><circle cx="717.8" cy="6.3" r="2" fill="#EBF0F2" fill-opacity="0.5"/><circle cx="132.6" cy="1541.5" r="2.4" fill="#EBF0F2" fill-opacity="0.6"/><circle cx="89.2" cy="1135.3" r="2.2" fill="#EBF0F2" fill-opacity="0.5"/><circle cx="47.3" cy="718.3" r="2.1" fill="#EBF0F2" fill-opacity="0.5"/><circle cx="99.2" cy="33.2" r="1.2" fill="#EBF0F2" fill-opacity="0.3"/><circle cx="356" cy="133.8" r="2" fill="#EBF0F2" fill-opacity="0.5"/><circle cx="27.2" cy="422.8" r="2" fill="#EBF0F2" fill-opacity="0.5"/><circle cx="1307.1" cy="248.2" r="1.6" fill="#EBF0F2" fill-opacity="0.4"/><circle cx="1402.5" cy="1454.1" r="1.1" fill="#EBF0F2" fill-opacity="0.2"/><circle cx="1313.6" cy="158.9" r="1.7" fill="#EBF0F2" fill-opacity="0.4"/><circle cx="1476.6" cy="1285.3" r="1.9" fill="#EBF0F2" fill-opacity="0.5"/><circle cx="39.3" cy="1136.3" r="1.3" fill="#EBF0F2" fill-opacity="0.3"/><circle cx="1447.5" cy="1453.1" r="1" fill="#EBF0F2" fill-opacity="0.2"/><circle cx="1539.2" cy="968" r="1" fill="#EBF0F2" fill-opacity="0.2"/><circle cx="804.9" cy="40.9" r="0.9" fill="#EBF0F2" fill-opacity="0.2"/><circle cx="1539.4" cy="555.6" r="1.2" fill="#EBF0F2" fill-opacity="0.3"/><circle cx="1322" cy="1545.7" r="1.6" fill="#EBF0F2" fill-opacity="0.4"/><circle cx="1363.5" cy="114.5" r="1.1" fill="#EBF0F2" fill-opacity="0.2"/><circle cx="1508.6" cy="1191.1" r="2" fill="#EBF0F2" fill-opacity="0.5"/><circle cx="397.2" cy="1388.1" r="1" fill="#EBF0F2" fill-opacity="0.2"/><circle cx="71.6" cy="592.7" r="1.5" fill="#EBF0F2" fill-opacity="0.3"/><circle cx="468.6" cy="1485.3" r="1.1" fill="#EBF0F2" fill-opacity="0.2"/><circle cx="79.7" cy="1264.9" r="1.8" fill="#EBF0F2" fill-opacity="0.4"/><circle cx="1390.4" cy="1583.5" r="2.4" fill="#EBF0F2" fill-opacity="0.6"/><circle cx="1510.3" cy="1243" r="1.7" fill="#EBF0F2" fill-opacity="0.4"/><circle cx="208.4" cy="1471.6" r="2.2" fill="#EBF0F2" fill-opacity="0.6"/><circle cx="15.4" cy="584.5" r="2.2" fill="#EBF0F2" fill-opacity="0.6"/><circle cx="1469.9" cy="1418.7" r="0.9" fill="#EBF0F2" fill-opacity="0.2"/><circle cx="158.8" cy="528.3" r="2.4" fill="#EBF0F2" fill-opacity="0.6"/><circle cx="1323.3" cy="1277.9" r="1.2" fill="#EBF0F2" fill-opacity="0.3"/><circle cx="216.6" cy="1519.4" r="2.3" fill="#EBF0F2" fill-opacity="0.6"/><circle cx="70.6" cy="517.7" r="1.8" fill="#EBF0F2" fill-opacity="0.4"/><circle cx="1462.7" cy="30.4" r="1.5" fill="#EBF0F2" fill-opacity="0.3"/><circle cx="698.3" cy="20" r="2.1" fill="#EBF0F2" fill-opacity="0.5"/><circle cx="83.9" cy="136.1" r="2.4" fill="#EBF0F2" fill-opacity="0.6"/><circle cx="1426.8" cy="194.9" r="2" fill="#EBF0F2" fill-opacity="0.5"/><circle cx="114" cy="1306.1" r="1.2" fill="#EBF0F2" fill-opacity="0.3"/><circle cx="375.5" cy="88" r="2" fill="#EBF0F2" fill-opacity="0.5"/><circle cx="153.4" cy="170.7" r="1.5" fill="#EBF0F2" fill-opacity="0.3"/><circle cx="37.2" cy="556.4" r="0.9" fill="#EBF0F2" fill-opacity="0.2"/><circle cx="1428.6" cy="220.2" r="2.1" fill="#EBF0F2" fill-opacity="0.5"/><circle cx="394.3" cy="1537.7" r="1.8" fill="#EBF0F2" fill-opacity="0.4"/><circle cx="20.1" cy="17.9" r="2.2" fill="#EBF0F2" fill-opacity="0.5"/><circle cx="261.3" cy="1210.7" r="1.5" fill="#EBF0F2" fill-opacity="0.4"/><circle cx="115" cy="796.9" r="1.1" fill="#EBF0F2" fill-opacity="0.2"/><circle cx="902.1" cy="1463.3" r="1.7" fill="#EBF0F2" fill-opacity="0.4"/><circle cx="307" cy="100.4" r="1.6" fill="#EBF0F2" fill-opacity="0.4"/><circle cx="1556.8" cy="1066.3" r="0.9" fill="#EBF0F2" fill-opacity="0.2"/><circle cx="127.2" cy="215.8" r="2.4" fill="#EBF0F2" fill-opacity="0.6"/><circle cx="1391.3" cy="77.5" r="1.5" fill="#EBF0F2" fill-opacity="0.4"/><circle cx="494.2" cy="1584.3" r="1.3" fill="#EBF0F2" fill-opacity="0.3"/><circle cx="309.8" cy="1296.5" r="0.9" fill="#EBF0F2" fill-opacity="0.2"/><circle cx="30" cy="180.6" r="1" fill="#EBF0F2" fill-opacity="0.2"/><circle cx="280" cy="1537.2" r="2.1" fill="#EBF0F2" fill-opacity="0.5"/><circle cx="590.9" cy="29.4" r="1.5" fill="#EBF0F2" fill-opacity="0.3"/><circle cx="781.8" cy="1541.1" r="0.8" fill="#EBF0F2" fill-opacity="0.2"/><circle cx="967.3" cy="1557.9" r="0.9" fill="#EBF0F2" fill-opacity="0.2"/><circle cx="21.2" cy="320.3" r="1" fill="#EBF0F2" fill-opacity="0.2"/><circle cx="453.1" cy="53.5" r="1.5" fill="#EBF0F2" fill-opacity="0.3"/><circle cx="575.5" cy="92.9" r="2" fill="#EBF0F2" fill-opacity="0.5"/><circle cx="1507.4" cy="921.8" r="2.3" fill="#EBF0F2" fill-opacity="0.6"/><circle cx="1519.4" cy="1249.7" r="1.7" fill="#EBF0F2" fill-opacity="0.4"/><circle cx="1574.1" cy="1047.1" r="1.3" fill="#EBF0F2" fill-opacity="0.3"/><circle cx="1525.5" cy="771.5" r="2.1" fill="#EBF0F2" fill-opacity="0.5"/><circle cx="1322.7" cy="138.7" r="1.4" fill="#EBF0F2" fill-opacity="0.3"/><circle cx="34" cy="182.9" r="1.6" fill="#EBF0F2" fill-opacity="0.4"/><circle cx="1567" cy="113.1" r="1.6" fill="#EBF0F2" fill-opacity="0.4"/><circle cx="609.3" cy="1434.8" r="1.6" fill="#EBF0F2" fill-opacity="0.4"/><circle cx="203.5" cy="115.7" r="1.9" fill="#EBF0F2" fill-opacity="0.5"/><circle cx="100" cy="457.6" r="1.8" fill="#EBF0F2" fill-opacity="0.4"/><circle cx="1541.5" cy="230.1" r="2.2" fill="#EBF0F2" fill-opacity="0.5"/><circle cx="363.3" cy="7.3" r="1.9" fill="#EBF0F2" fill-opacity="0.5"/><circle cx="54.1" cy="1568.6" r="1.2" fill="#EBF0F2" fill-opacity="0.3"/><circle cx="1364.2" cy="1396" r="2.2" fill="#EBF0F2" fill-opacity="0.5"/><circle cx="80.9" cy="972.9" r="1.6" fill="#EBF0F2" fill-opacity="0.4"/><circle cx="212.2" cy="1149.5" r="2" fill="#EBF0F2" fill-opacity="0.5"/><circle cx="1274.6" cy="1563.2" r="1.6" fill="#EBF0F2" fill-opacity="0.4"/><circle cx="1392.7" cy="199.9" r="1.3" fill="#EBF0F2" fill-opacity="0.3"/><circle cx="820" cy="760" r="330" fill="none" stroke="#EBF0F2" stroke-opacity="0.34"/><circle cx="820" cy="760" r="375" fill="none" stroke="#EBF0F2" stroke-opacity="0.2"/><circle cx="820" cy="760" r="440" fill="none" stroke="#EBF0F2" stroke-opacity="0.12"/><circle cx="820" cy="760" r="530" fill="none" stroke="#EBF0F2" stroke-opacity="0.07"/><circle cx="820" cy="760" r="650" fill="none" stroke="#EBF0F2" stroke-opacity="0.04"/><circle cx="820" cy="760" r="300" fill="#EBF0F2" fill-opacity=".92"/><circle cx="846" cy="746" r="298" fill="#000000"/><filter id="g" x="0" y="0" width="100%" height="100%"><feTurbulence type="fractalNoise" baseFrequency=".85" numOctaves="2" stitchTiles="stitch"/><feColorMatrix type="saturate" values="0"/></filter><rect width="1600" height="1600" filter="url(#g)" opacity=".07"/></svg>